<?xml version="1.0" encoding="UTF-8"?>
<svg id="Layer_2" xmlns="http://www.w3.org/2000/svg" viewBox="0 0 901.85 183.52">
  <defs>
    <style>
      .cls-1 {
        fill: #fff;
      }

      .cls-2 {
        fill: #eab700;
      }
    </style>
  </defs>
  <g id="Layer_1-2" data-name="Layer_1">
    <g>
      <path class="cls-2" d="M893.46,182.53c-.99-1.73-1.48-3.95-1.48-6.66,0-2.22.49-3.95,1.48-5.18.99-1.23,1.48-2.22,1.73-2.96.25-.74.25-1.23.25-1.97,0-1.23-.49-2.47-1.23-3.7-3.7-4.69-8.14-8.39-13.07-11.1-13.57-7.4-28.12-12.58-43.66-15.54-1.97-.25-3.95-.74-5.67-1.23-2.71-.74-5.43-1.23-7.89-1.73-2.71-.25-4.93-.49-6.66-.49-2.71-.49-4.69-.74-5.92-.74h-1.97c-.99,0-1.73.49-2.22,1.48-3.7,5.43-6.17,9.37-7.4,12.09l-.25.49c-1.48,2.22-2.71,4.93-3.95,7.65l-.25.74c0,.49.25.99.49,1.23,1.48,1.48,2.22,3.21,2.22,5.43,0,1.73-.99,2.47-2.71,2.71-4.19,0-7.89-2.71-11.59-8.39-4.19-5.92-8.88-11.35-14.06-16.53-4.19-4.19-6.17-9.13-6.17-15.05,0-4.19,1.23-7.65,3.7-10.11,4.93-4.44,10.36-6.91,16.53-7.65,2.96-.25,5.92-.49,9.13-.49h5.67c1.23,0,2.22-.49,2.96-1.48.49-.99.99-1.97,1.73-2.71.74-.74,1.23-1.73,1.73-2.71s1.23-1.97,1.97-2.96c.74-.74,1.23-1.48,1.73-1.97,1.73-2.22,3.21-4.69,4.44-6.91l14.31-20.47c1.73-2.47,3.7-4.93,5.67-7.65,1.97-2.47,3.95-5.18,5.92-8.14,1.23-1.73,2.47-3.7,3.95-5.43,1.23-1.73,2.71-3.7,3.95-5.92.49-.74.99-1.48,1.73-2.22.74-.74,1.23-1.73,1.97-3.21l-6.41,2.71c-1.97,1.23-3.95,2.22-5.92,2.96-2.22.74-4.19,1.97-6.41,3.45l-1.48.74c-2.22.49-4.19,1.23-6.41,2.22-4.69,1.48-7.65,2.22-9.13,2.22-1.97,0-3.95-.49-5.92-1.48-4.93-2.71-8.39-6.91-10.61-12.58-.49-1.48-.74-2.71-.74-3.7,0-.49.25-1.23.74-2.22.25-.74,5.18-3.21,14.55-7.4.49-.25.99-.49,1.73-.74.74-.25,1.48-.49,2.22-.49l21.46-6.91c1.73-.74,3.7-1.23,5.67-1.73,4.69-1.23,8.63-2.22,11.35-3.45,3.7-1.48,7.4-2.47,11.35-2.96.99-.25,1.97-.49,2.71-.74.74-.25,1.73-.49,2.47-.49,5.67-1.73,9.62-2.47,11.84-2.47,2.47,0,4.69.74,6.41,1.97,1.73,1.23,3.21,3.45,4.93,6.17,1.23,2.47,1.73,4.44,1.73,6.17,0,2.47-.99,4.44-2.96,5.92-1.97,1.48-3.95,3.21-5.67,4.93-.74.74-1.23,1.48-1.97,1.97-3.21,3.21-5.92,6.41-8.39,10.11l-22.45,28.37c-1.48,2.22-3.21,4.44-4.93,6.41-2.22,2.71-4.44,5.67-6.66,8.63-3.7,4.69-7.4,9.37-10.85,14.31l-2.22,2.96c-2.22,2.71-4.19,5.67-6.17,8.88v.49c-.74.74-.99,1.48-.99,1.73,0,.49.74.99,2.22,1.23,5.67,1.48,11.35,2.96,17.02,4.69l1.97.74c2.47.74,4.93,1.48,7.15,2.47,2.22.99,4.19,1.97,6.41,2.71,3.21,1.23,6.41,2.47,9.62,4.19l1.23.49c21.95,11.1,32.81,24.67,32.81,41.19,0,5.43-1.48,10.36-4.44,14.8-.25.49-.74.99-.99,1.23-.49.49-.99.74-1.73.74-.49,0-.99-.25-1.23-.99Z"/>
      <g>
        <polygon class="cls-1" points="121.32 25.6 82.26 98.91 68.32 25.6 21.51 25.6 0 147.43 38.21 147.43 48.88 86.34 56.96 147.43 89.66 147.43 119.09 86.86 108.42 147.43 128.64 147.43 138.7 147.43 146.44 147.43 150.18 126.27 155.03 98.79 167.96 25.6 121.32 25.6"/>
        <path class="cls-1" d="M204.79,25.6l-41.3,76.13-8.06,45.69h23.38l9.29-18.41h40.61l2.76,18.41h40.27l-22.89-121.83h-44.05ZM202.55,100.28l17.03-33.9,4.99,33.9h-22.03Z"/>
        <polygon class="cls-1" points="372.79 55.88 375.83 55.88 376.82 50.32 379.57 34.69 381.17 25.6 278.61 25.6 273.27 55.88 305.28 55.88 289.1 147.43 327.3 147.43 343.49 55.88 362.46 55.88 372.79 55.88"/>
        <path class="cls-1" d="M477.88,100.28h-40.27c-2.53,4.02-5.68,7.14-9.47,9.39-3.78,2.24-7.86,3.35-12.21,3.35-5.4,0-9.55-1.71-12.48-5.16-2.93-3.44-4.38-8.14-4.38-14.11,0-2.64.22-5.11.68-7.41,1.38-8.14,4.37-14.63,8.95-19.44,4.59-4.82,10.09-7.22,16.52-7.22,4.36,0,8.03,1.11,11.01,3.35,2.98,2.24,5.05,5.36,6.2,9.38h40.27c.04-3.63-.21-7.1-.75-10.39-.9-5.44-2.61-10.4-5.1-14.9-.31-.55-.62-1.09-.95-1.62-3.96-6.45-9.46-11.5-16.51-15.16-7.64-3.96-16.72-5.94-27.28-5.94-12.28,0-23.4,2.62-33.38,7.83-3.94,2.06-7.61,4.45-11.01,7.17l-4.46,25.33h-15.44c-3.19,6.66-5.44,13.87-6.77,21.62-.8,4.48-1.21,9.07-1.21,13.77,0,9.63,1.95,18.1,5.85,25.38,3.9,7.28,9.64,12.9,17.21,16.86,7.57,3.96,16.7,5.94,27.36,5.94s20.34-1.98,29.34-5.94c8.36-3.68,15.64-8.75,21.88-15.24h0c.48-.51.95-1.02,1.42-1.54,4.09-4.53,7.58-9.52,10.46-14.99,1.71-3.27,3.22-6.71,4.51-10.31Z"/>
        <path class="cls-1" d="M592.3,25.6h-29.41l-7.74,43.87h-36.31l7.74-43.87h-38.21l-3.23,18.29c4.37,8.32,6.51,17.94,6.39,28.62l-.11,8.73h-12.88l-1.8,10.2h13.67l-4.22,11.82c-3.76,10.54-9.3,19.95-16.47,27.93h0s-2.86,16.24-2.86,16.24h38.2l8.43-47.49h36.31l-8.43,47.49h38.21l3.37-19.07,18.14-102.76h-8.79Z"/>
        <path class="cls-1" d="M709.16,25.6h-38.02l-12.05,68.66c-1.03,5.62-3.16,10.07-6.37,13.34-3.21,3.27-7.57,4.91-13.07,4.91-4.48,0-7.75-1.12-9.81-3.36-2.07-2.24-3.1-5.3-3.1-9.2,0-1.95.18-3.84.52-5.68l12.05-68.66h-29.24l-17.94,101.61h0c1.99,4.11,4.68,7.65,8.11,10.67,8.14,7.17,19.04,10.76,32.69,10.76,10.67,0,20.45-2.01,29.34-6.03,7.75-3.5,14.46-8.57,20.12-15.22.83-.97,1.63-1.98,2.42-3.02,6.14-8.14,10.24-18.18,12.31-30.11l12.04-68.66Z"/>
        <path class="cls-1" d="M792.28,34.37c-6.78-5.85-16.64-8.77-29.6-8.77h-44.55l-12.31,70.19c-2.3,13.25-6.99,24.66-13.96,33.9-.39.51-.78,1.03-1.18,1.53l-2.86,16.21h38.21l6.88-38.71h15.15c9.86,0,18.61-1.84,26.24-5.52,7.63-3.67,13.73-8.63,18.32-14.88,4.59-6.25,7.57-13.22,8.95-20.9.57-3.45.86-6.43.86-8.95,0-10.21-3.39-18.24-10.15-24.09ZM762.85,67.42c-1.38,7.46-5.97,11.18-13.76,11.18h-10.84l3.96-22.37h10.84c6.77,0,10.16,2.76,10.16,8.26,0,.57-.11,1.55-.34,2.93Z"/>
      </g>
    </g>
  </g>
</svg>