<?xml version="1.0" encoding="UTF-8"?>
<svg id="Layer_2" xmlns="http://www.w3.org/2000/svg" viewBox="0 0 517.3 678">
  <defs>
    <style>
      .cls-1 {
        fill: #fff;
      }

      .cls-2 {
        fill: #eab700;
      }
    </style>
  </defs>
  <g id="Layer_1-2" data-name="Layer_1">
    <g>
      <path class="cls-2" d="M486.32,674.36c-3.64-6.38-5.47-14.58-5.47-24.6,0-8.2,1.82-14.58,5.47-19.14,3.64-4.55,5.47-8.2,6.38-10.94.91-2.73.91-4.55.91-7.29,0-4.55-1.82-9.11-4.56-13.67-13.67-17.31-30.07-30.98-48.3-41.01-50.12-27.34-103.89-46.48-161.3-57.41-7.29-.91-14.58-2.74-20.96-4.56-10.03-2.73-20.05-4.55-29.16-6.38-10.03-.91-18.23-1.82-24.6-1.82-10.03-1.82-17.31-2.73-21.87-2.73h-7.29c-3.64,0-6.38,1.82-8.2,5.47-13.67,20.05-22.78,34.63-27.34,44.65l-.91,1.82c-5.47,8.2-10.03,18.23-14.58,28.25l-.91,2.74c0,1.82.91,3.64,1.82,4.55,5.47,5.47,8.2,11.85,8.2,20.05,0,6.38-3.64,9.11-10.03,10.02-15.49,0-29.16-10.02-42.83-30.98-15.49-21.87-32.81-41.92-51.94-61.05-15.49-15.5-22.78-33.72-22.78-55.59,0-15.49,4.56-28.25,13.67-37.36,18.23-16.4,38.27-25.52,61.06-28.25,10.93-.91,21.87-1.82,33.72-1.82h20.96c4.55,0,8.2-1.82,10.93-5.47,1.82-3.65,3.64-7.29,6.38-10.03,2.74-2.74,4.56-6.38,6.38-10.03,1.82-3.64,4.56-7.29,7.29-10.93,2.73-2.74,4.56-5.47,6.38-7.29,6.38-8.2,11.85-17.31,16.4-25.52l52.85-75.64c6.38-9.11,13.67-18.23,20.96-28.25,7.29-9.11,14.58-19.14,21.87-30.07,4.56-6.38,9.11-13.67,14.58-20.05,4.56-6.38,10.03-13.67,14.58-21.87,1.82-2.74,3.64-5.47,6.38-8.2,2.74-2.74,4.56-6.38,7.29-11.85l-23.69,10.03c-7.29,4.55-14.58,8.2-21.87,10.94-8.2,2.73-15.49,7.29-23.69,12.76l-5.47,2.74c-8.2,1.82-15.49,4.55-23.69,8.2-17.31,5.47-28.25,8.2-33.72,8.2-7.29,0-14.58-1.82-21.87-5.47-18.22-10.02-30.98-25.51-39.18-46.47-1.82-5.47-2.74-10.03-2.74-13.67,0-1.82.91-4.56,2.74-8.2.91-2.74,19.14-11.85,53.77-27.34,1.82-.91,3.64-1.82,6.38-2.74,2.74-.91,5.47-1.82,8.2-1.82l79.28-25.51c6.38-2.74,13.67-4.56,20.96-6.38,17.31-4.55,31.9-8.2,41.92-12.76,13.67-5.47,27.34-9.11,41.92-10.94,3.64-.91,7.29-1.82,10.03-2.74,2.73-.91,6.38-1.82,9.11-1.82,20.96-6.38,35.54-9.11,43.74-9.11,9.11,0,17.31,2.73,23.69,7.29,6.38,4.55,11.85,12.76,18.23,22.78,4.56,9.11,6.38,16.4,6.38,22.78,0,9.11-3.65,16.4-10.94,21.87-7.29,5.47-14.58,11.84-20.96,18.23-2.73,2.73-4.56,5.47-7.29,7.29-11.85,11.84-21.87,23.69-30.98,37.36l-82.93,104.8c-5.47,8.2-11.85,16.4-18.22,23.69-8.2,10.03-16.4,20.96-24.6,31.89-13.67,17.31-27.34,34.63-40.1,52.86l-8.2,10.93c-8.2,10.03-15.49,20.96-22.78,32.81v1.82c-2.74,2.74-3.65,5.47-3.65,6.38,0,1.82,2.74,3.65,8.2,4.56,20.96,5.47,41.92,10.94,62.88,17.31l7.29,2.73c9.11,2.74,18.22,5.47,26.43,9.11,8.2,3.65,15.49,7.29,23.7,10.03,11.85,4.56,23.69,9.11,35.54,15.49l4.56,1.82c81.11,41.01,121.2,91.13,121.2,152.19,0,20.05-5.47,38.27-16.4,54.68-.91,1.82-2.73,3.65-3.64,4.56-1.82,1.82-3.64,2.73-6.38,2.73-1.82,0-3.64-.91-4.56-3.64Z"/>
      <g>
        <path class="cls-1" d="M290.86,161.94h-91.31l-28.92,164.84c-2.47,13.51-7.58,24.18-15.29,32.03-7.72,7.85-18.19,11.76-31.41,11.76-10.73,0-18.58-2.69-23.54-8.04-4.96-5.37-7.44-12.74-7.44-22.1,0-4.68.41-9.24,1.25-13.65l28.92-164.84H31.82L2.9,326.77c-1.94,10.48-2.9,20.8-2.9,31,0,31.94,9.79,56.54,29.34,73.74,19.54,17.21,45.72,25.82,78.49,25.82,25.61,0,49.1-4.82,70.43-14.47,20.7-9.33,38.28-23.33,52.75-42,.48-.59.93-1.19,1.39-1.8,14.73-19.54,24.58-43.65,29.54-72.3l28.92-164.84Z"/>
        <path class="cls-1" d="M490.42,183.01c-16.26-14.04-39.95-21.07-71.07-21.07h-110.4l-29.47,167.92c-5.27,30.5-15.93,56.84-31.68,78.3l-8.17,46.29h91.72l16.53-92.94h36.36c23.69,0,44.68-4.41,63-13.22,18.33-8.81,32.99-20.73,44.01-35.75,11.02-15,18.19-31.73,21.48-50.18,1.39-8.27,2.06-15.43,2.06-21.5,0-24.5-8.11-43.79-24.36-57.83ZM419.75,262.34c-3.29,17.9-14.31,26.85-33.05,26.85h-26.02l9.5-53.71h26.02c16.25,0,24.38,6.6,24.38,19.82,0,1.39-.28,3.72-.84,7.03Z"/>
      </g>
    </g>
  </g>
</svg>